<?xml version="1.0" encoding="UTF-8"?>
<svg version="1.1" xmlns="http://www.w3.org/2000/svg" width="500" height="500">
<path d="M0 0 C165 0 330 0 500 0 C500 165 500 330 500 500 C335 500 170 500 0 500 C0 335 0 170 0 0 Z " fill="#000000" transform="translate(0,0)"/>
<path d="M0 0 C1.21171875 0.00322266 2.4234375 0.00644531 3.671875 0.00976562 C4.94289063 0.01814453 6.21390625 0.02652344 7.5234375 0.03515625 C8.8021875 0.03966797 10.0809375 0.04417969 11.3984375 0.04882812 C14.56515042 0.06064422 17.73177106 0.0771181 20.8984375 0.09765625 C21.3315625 1.67546875 21.3315625 1.67546875 21.7734375 3.28515625 C22.90640591 7.34336924 22.90640591 7.34336924 24.8984375 12.09765625 C20.6084375 12.09765625 16.3184375 12.09765625 11.8984375 12.09765625 C11.8984375 12.75765625 11.8984375 13.41765625 11.8984375 14.09765625 C14.2084375 14.09765625 16.5184375 14.09765625 18.8984375 14.09765625 C18.8984375 15.08765625 18.8984375 16.07765625 18.8984375 17.09765625 C21.2084375 17.42765625 23.5184375 17.75765625 25.8984375 18.09765625 C25.8984375 18.75765625 25.8984375 19.41765625 25.8984375 20.09765625 C24.9084375 20.42765625 23.9184375 20.75765625 22.8984375 21.09765625 C22.8984375 23.07765625 22.8984375 25.05765625 22.8984375 27.09765625 C24.8784375 26.60265625 24.8784375 26.60265625 26.8984375 26.09765625 C26.8984375 25.10765625 26.8984375 24.11765625 26.8984375 23.09765625 C33.94055106 19.74426884 42.67703793 19.91360515 50.1015625 21.99609375 C52.43355196 22.93555236 54.67521653 23.92588802 56.8984375 25.09765625 C57.2284375 24.10765625 57.5584375 23.11765625 57.8984375 22.09765625 C63.8384375 21.60265625 63.8384375 21.60265625 69.8984375 21.09765625 C69.8984375 19.44765625 69.8984375 17.79765625 69.8984375 16.09765625 C67.9184375 15.76765625 65.9384375 15.43765625 63.8984375 15.09765625 C64.2284375 14.43765625 64.5584375 13.77765625 64.8984375 13.09765625 C65.5584375 13.09765625 66.2184375 13.09765625 66.8984375 13.09765625 C66.8984375 12.43765625 66.8984375 11.77765625 66.8984375 11.09765625 C66.2384375 10.43765625 65.5784375 9.77765625 64.8984375 9.09765625 C66.5484375 9.09765625 68.1984375 9.09765625 69.8984375 9.09765625 C69.6715625 8.16953125 69.4446875 7.24140625 69.2109375 6.28515625 C68.8984375 3.09765625 68.8984375 3.09765625 70.01879883 1.41674805 C72.63962854 -0.42249639 74.47836316 -0.2437662 77.66015625 -0.1953125 C78.77841797 -0.18564453 79.89667969 -0.17597656 81.04882812 -0.16601562 C82.79969727 -0.12831055 82.79969727 -0.12831055 84.5859375 -0.08984375 C85.76478516 -0.07630859 86.94363281 -0.06277344 88.15820312 -0.04882812 C91.07207161 -0.01343701 93.98502695 0.03593816 96.8984375 0.09765625 C96.2384375 2.40765625 95.5784375 4.71765625 94.8984375 7.09765625 C95.5584375 7.09765625 96.2184375 7.09765625 96.8984375 7.09765625 C96.8984375 7.75765625 96.8984375 8.41765625 96.8984375 9.09765625 C96.2384375 9.75765625 95.5784375 10.41765625 94.8984375 11.09765625 C94.20095167 12.41512949 93.52883793 13.74679818 92.8984375 15.09765625 C93.8884375 15.42765625 94.8784375 15.75765625 95.8984375 16.09765625 C96.2284375 18.07765625 96.5584375 20.05765625 96.8984375 22.09765625 C98.54392578 22.01064453 98.54392578 22.01064453 100.22265625 21.921875 C101.67704064 21.87495937 103.13147124 21.82946114 104.5859375 21.78515625 C105.30716797 21.74326172 106.02839844 21.70136719 106.77148438 21.65820312 C111.09421146 21.55951073 112.44376712 21.71827411 115.91796875 24.6171875 C116.89830078 25.84501953 116.89830078 25.84501953 117.8984375 27.09765625 C118.2284375 25.44765625 118.5584375 23.79765625 118.8984375 22.09765625 C125.27301098 21.14297367 131.45905403 20.97742385 137.8984375 21.03515625 C138.86394531 21.03966797 139.82945312 21.04417969 140.82421875 21.04882812 C143.18235839 21.06050208 145.54036352 21.07687604 147.8984375 21.09765625 C147.8984375 21.75765625 147.8984375 22.41765625 147.8984375 23.09765625 C150.8684375 23.09765625 153.8384375 23.09765625 156.8984375 23.09765625 C157.2284375 23.75765625 157.5584375 24.41765625 157.8984375 25.09765625 C159.47625 25.68546875 159.47625 25.68546875 161.0859375 26.28515625 C164.99023531 27.83727464 166.96309019 30.15547614 169.44140625 33.4765625 C171.09189721 35.31289963 172.64675852 36.12851819 174.8984375 37.09765625 C174.5684375 38.08765625 174.2384375 39.07765625 173.8984375 40.09765625 C170.00266726 40.1558756 166.10700948 40.19132655 162.2109375 40.22265625 C161.10814453 40.23941406 160.00535156 40.25617188 158.86914062 40.2734375 C157.80244141 40.27988281 156.73574219 40.28632813 155.63671875 40.29296875 C154.16779175 40.3086792 154.16779175 40.3086792 152.66918945 40.32470703 C149.71247759 40.08241766 147.59937188 39.28359952 144.8984375 38.09765625 C142.2368188 37.65216268 142.2368188 37.65216268 139.5859375 37.47265625 C138.70292969 37.39789063 137.81992187 37.323125 136.91015625 37.24609375 C136.24628906 37.19710937 135.58242188 37.148125 134.8984375 37.09765625 C134.8984375 37.75765625 134.8984375 38.41765625 134.8984375 39.09765625 C136.8784375 39.09765625 138.8584375 39.09765625 140.8984375 39.09765625 C140.8984375 39.75765625 140.8984375 40.41765625 140.8984375 41.09765625 C139.4134375 41.59265625 139.4134375 41.59265625 137.8984375 42.09765625 C138.51887939 42.14253174 139.13932129 42.18740723 139.77856445 42.23364258 C142.59062598 42.44501442 145.40057409 42.67733423 148.2109375 42.91015625 C149.18740234 42.98041016 150.16386719 43.05066406 151.16992188 43.12304688 C152.57661133 43.24389648 152.57661133 43.24389648 154.01171875 43.3671875 C155.30783081 43.46930542 155.30783081 43.46930542 156.63012695 43.57348633 C159.30761258 44.19221 160.11737366 45.06237944 161.8984375 47.09765625 C162.8884375 47.75765625 163.8784375 48.41765625 164.8984375 49.09765625 C164.2384375 49.42765625 163.5784375 49.75765625 162.8984375 50.09765625 C164.0121875 50.36578125 165.1259375 50.63390625 166.2734375 50.91015625 C169.8984375 52.09765625 169.8984375 52.09765625 171.8984375 55.09765625 C171.5234375 58.78515625 171.5234375 58.78515625 170.8984375 62.09765625 C171.5584375 62.09765625 172.2184375 62.09765625 172.8984375 62.09765625 C172.8984375 63.74765625 172.8984375 65.39765625 172.8984375 67.09765625 C173.5584375 67.09765625 174.2184375 67.09765625 174.8984375 67.09765625 C174.8984375 67.75765625 174.8984375 68.41765625 174.8984375 69.09765625 C176.5484375 69.09765625 178.1984375 69.09765625 179.8984375 69.09765625 C179.5684375 70.08765625 179.2384375 71.07765625 178.8984375 72.09765625 C177.2484375 72.42765625 175.5984375 72.75765625 173.8984375 73.09765625 C173.8984375 73.75765625 173.8984375 74.41765625 173.8984375 75.09765625 C172.3825 75.49984375 172.3825 75.49984375 170.8359375 75.91015625 C167.02516308 76.99117185 163.50968542 78.47627963 159.8984375 80.09765625 C162.2084375 80.42765625 164.5184375 80.75765625 166.8984375 81.09765625 C166.8984375 81.42765625 166.8984375 81.75765625 166.8984375 82.09765625 C159.71121445 82.96161871 152.63409078 83.25191091 145.3984375 83.22265625 C144.41101563 83.22652344 143.42359375 83.23039062 142.40625 83.234375 C140.99472656 83.23244141 140.99472656 83.23244141 139.5546875 83.23046875 C138.28334961 83.22877686 138.28334961 83.22877686 136.98632812 83.22705078 C134.8984375 83.09765625 134.8984375 83.09765625 132.8984375 82.09765625 C129.88267017 81.82069803 126.86705638 81.65112687 123.84375 81.4765625 C119.39749004 80.90456354 116.88287747 79.38054022 113.8984375 76.09765625 C114.5584375 78.07765625 115.2184375 80.05765625 115.8984375 82.09765625 C111.44032998 82.21499862 106.98262622 82.28528997 102.5234375 82.34765625 C101.27175781 82.38117188 100.02007812 82.4146875 98.73046875 82.44921875 C91.13749349 82.52872634 84.5443447 82.08116942 77.8984375 78.09765625 C77.5684375 77.43765625 77.2384375 76.77765625 76.8984375 76.09765625 C77.5584375 75.76765625 78.2184375 75.43765625 78.8984375 75.09765625 C79.2284375 74.10765625 79.5584375 73.11765625 79.8984375 72.09765625 C76.9284375 71.43765625 73.9584375 70.77765625 70.8984375 70.09765625 C71.5584375 69.76765625 72.2184375 69.43765625 72.8984375 69.09765625 C72.8984375 68.43765625 72.8984375 67.77765625 72.8984375 67.09765625 C73.5584375 67.09765625 74.2184375 67.09765625 74.8984375 67.09765625 C74.8984375 66.43765625 74.8984375 65.77765625 74.8984375 65.09765625 C77.8684375 65.09765625 80.8384375 65.09765625 83.8984375 65.09765625 C83.8984375 64.43765625 83.8984375 63.77765625 83.8984375 63.09765625 C79.2784375 63.09765625 74.6584375 63.09765625 69.8984375 63.09765625 C68.10748155 55.93383244 69.67599798 49.25765915 70.8984375 42.09765625 C68.2584375 42.42765625 65.6184375 42.75765625 62.8984375 43.09765625 C62.82738099 47.36104692 62.78905356 50.97708733 63.8984375 55.09765625 C63.5684375 55.75765625 63.2384375 56.41765625 62.8984375 57.09765625 C63.5584375 57.09765625 64.2184375 57.09765625 64.8984375 57.09765625 C64.9809375 58.04640625 65.0634375 58.99515625 65.1484375 59.97265625 C65.3959375 61.00390625 65.6434375 62.03515625 65.8984375 63.09765625 C67.2184375 63.75765625 68.5384375 64.41765625 69.8984375 65.09765625 C66.5984375 65.09765625 63.2984375 65.09765625 59.8984375 65.09765625 C59.8984375 65.75765625 59.8984375 66.41765625 59.8984375 67.09765625 C61.8784375 67.09765625 63.8584375 67.09765625 65.8984375 67.09765625 C64.4134375 67.59265625 64.4134375 67.59265625 62.8984375 68.09765625 C63.64993773 71.37539129 63.64993773 71.37539129 66.8984375 73.09765625 C64.2584375 73.09765625 61.6184375 73.09765625 58.8984375 73.09765625 C58.8984375 74.08765625 58.8984375 75.07765625 58.8984375 76.09765625 C61.5384375 76.09765625 64.1784375 76.09765625 66.8984375 76.09765625 C65.5784375 76.42765625 64.2584375 76.75765625 62.8984375 77.09765625 C62.7540625 77.73703125 62.6096875 78.37640625 62.4609375 79.03515625 C61.8984375 81.09765625 61.8984375 81.09765625 60.8984375 82.09765625 C58.97176243 82.18513832 57.04191889 82.20462959 55.11328125 82.1953125 C53.35854492 82.19047852 53.35854492 82.19047852 51.56835938 82.18554688 C50.33666016 82.17716797 49.10496094 82.16878906 47.8359375 82.16015625 C45.98258789 82.15338867 45.98258789 82.15338867 44.09179688 82.14648438 C41.02729633 82.13465233 37.96289029 82.11816798 34.8984375 82.09765625 C34.5684375 80.44765625 34.2384375 78.79765625 33.8984375 77.09765625 C32.5784375 76.76765625 31.2584375 76.43765625 29.8984375 76.09765625 C29.8984375 75.10765625 29.8984375 74.11765625 29.8984375 73.09765625 C31.5484375 72.76765625 33.1984375 72.43765625 34.8984375 72.09765625 C34.5684375 70.77765625 34.2384375 69.45765625 33.8984375 68.09765625 C35.3834375 67.60265625 35.3834375 67.60265625 36.8984375 67.09765625 C34.9184375 66.76765625 32.9384375 66.43765625 30.8984375 66.09765625 C32.2109375 64.59765625 32.2109375 64.59765625 33.8984375 63.09765625 C34.8884375 63.09765625 35.8784375 63.09765625 36.8984375 63.09765625 C36.5478125 62.47890625 36.1971875 61.86015625 35.8359375 61.22265625 C35.371875 60.17078125 35.371875 60.17078125 34.8984375 59.09765625 C35.2284375 58.43765625 35.5584375 57.77765625 35.8984375 57.09765625 C35.2384375 57.09765625 34.5784375 57.09765625 33.8984375 57.09765625 C33.8984375 55.11765625 33.8984375 53.13765625 33.8984375 51.09765625 C32.2484375 51.09765625 30.5984375 51.09765625 28.8984375 51.09765625 C28.8984375 50.76765625 28.8984375 50.43765625 28.8984375 50.09765625 C30.5484375 50.09765625 32.1984375 50.09765625 33.8984375 50.09765625 C33.8984375 48.11765625 33.8984375 46.13765625 33.8984375 44.09765625 C32.9084375 43.76765625 31.9184375 43.43765625 30.8984375 43.09765625 C30.8984375 42.43765625 30.8984375 41.77765625 30.8984375 41.09765625 C25.94329248 41.97238218 25.94329248 41.97238218 22.4609375 45.22265625 C22.2753125 45.84140625 22.0896875 46.46015625 21.8984375 47.09765625 C21.2384375 47.09765625 20.5784375 47.09765625 19.8984375 47.09765625 C20.2284375 49.07765625 20.5584375 51.05765625 20.8984375 53.09765625 C21.8884375 53.42765625 22.8784375 53.75765625 23.8984375 54.09765625 C23.2384375 54.09765625 22.5784375 54.09765625 21.8984375 54.09765625 C21.8984375 55.74765625 21.8984375 57.39765625 21.8984375 59.09765625 C21.2384375 59.09765625 20.5784375 59.09765625 19.8984375 59.09765625 C19.8984375 59.75765625 19.8984375 60.41765625 19.8984375 61.09765625 C24.1884375 61.09765625 28.4784375 61.09765625 32.8984375 61.09765625 C31.4134375 61.59265625 31.4134375 61.59265625 29.8984375 62.09765625 C29.16519954 64.11273983 29.16519954 64.11273983 28.8984375 66.09765625 C25.4334375 66.59265625 25.4334375 66.59265625 21.8984375 67.09765625 C21.8984375 68.41765625 21.8984375 69.73765625 21.8984375 71.09765625 C18.9284375 71.42765625 15.9584375 71.75765625 12.8984375 72.09765625 C12.8984375 72.75765625 12.8984375 73.41765625 12.8984375 74.09765625 C15.2084375 74.09765625 17.5184375 74.09765625 19.8984375 74.09765625 C19.8984375 74.75765625 19.8984375 75.41765625 19.8984375 76.09765625 C17.9184375 76.42765625 15.9384375 76.75765625 13.8984375 77.09765625 C13.8984375 77.75765625 13.8984375 78.41765625 13.8984375 79.09765625 C16.5384375 79.09765625 19.1784375 79.09765625 21.8984375 79.09765625 C21.8984375 80.08765625 21.8984375 81.07765625 21.8984375 82.09765625 C13.3184375 82.09765625 4.7384375 82.09765625 -4.1015625 82.09765625 C-3.7715625 84.07765625 -3.4415625 86.05765625 -3.1015625 88.09765625 C-4.0915625 88.09765625 -5.0815625 88.09765625 -6.1015625 88.09765625 C-6.1015625 88.75765625 -6.1015625 89.41765625 -6.1015625 90.09765625 C-7.0915625 90.42765625 -8.0815625 90.75765625 -9.1015625 91.09765625 C-9.2459375 91.86078125 -9.3903125 92.62390625 -9.5390625 93.41015625 C-10.23496712 96.73503387 -10.66709073 98.66318448 -13.1015625 101.09765625 C-12.4415625 101.75765625 -11.7815625 102.41765625 -11.1015625 103.09765625 C-20.59887202 107.32262759 -31.54480267 107.28619628 -41.7890625 107.34765625 C-42.65023682 107.35684082 -43.51141113 107.36602539 -44.39868164 107.37548828 C-45.61865845 107.3694458 -45.61865845 107.3694458 -46.86328125 107.36328125 C-47.58475342 107.36102539 -48.30622559 107.35876953 -49.04956055 107.35644531 C-51.40740185 107.0590852 -53.04596147 106.2626993 -55.1015625 105.09765625 C-54.4415625 104.76765625 -53.7815625 104.43765625 -53.1015625 104.09765625 C-53.97039062 103.89011719 -54.83921875 103.68257813 -55.734375 103.46875 C-62.37149751 101.69439622 -67.06667575 100.29700561 -71.24609375 94.68359375 C-72.1015625 93.09765625 -72.1015625 93.09765625 -72.1015625 91.09765625 C-73.0915625 90.76765625 -74.0815625 90.43765625 -75.1015625 90.09765625 C-73.7815625 90.09765625 -72.4615625 90.09765625 -71.1015625 90.09765625 C-71.4315625 88.11765625 -71.7615625 86.13765625 -72.1015625 84.09765625 C-67.70595211 83.98135843 -63.31073821 83.91036991 -58.9140625 83.84765625 C-57.66818359 83.81414062 -56.42230469 83.780625 -55.13867188 83.74609375 C-53.3355957 83.72675781 -53.3355957 83.72675781 -51.49609375 83.70703125 C-49.83864136 83.67561035 -49.83864136 83.67561035 -48.14770508 83.64355469 C-44.43057359 84.19768345 -42.93598023 85.72217807 -40.1015625 88.09765625 C-36.36432817 87.95779352 -36.36432817 87.95779352 -33.1015625 87.09765625 C-34.7515625 86.76765625 -36.4015625 86.43765625 -38.1015625 86.09765625 C-38.1015625 85.43765625 -38.1015625 84.77765625 -38.1015625 84.09765625 C-36.4515625 84.09765625 -34.8015625 84.09765625 -33.1015625 84.09765625 C-33.4315625 81.45765625 -33.7615625 78.81765625 -34.1015625 76.09765625 C-35.2565625 76.59265625 -36.4115625 77.08765625 -37.6015625 77.59765625 C-42.1445309 79.11438656 -46.53282979 79.43331241 -51.2890625 79.47265625 C-51.96582031 79.48619141 -52.64257812 79.49972656 -53.33984375 79.51367188 C-57.97681772 79.4727574 -61.1242364 78.43580441 -65.1015625 76.09765625 C-65.1015625 75.43765625 -65.1015625 74.77765625 -65.1015625 74.09765625 C-67.4115625 73.76765625 -69.7215625 73.43765625 -72.1015625 73.09765625 C-72.1015625 74.08765625 -72.1015625 75.07765625 -72.1015625 76.09765625 C-72.7615625 76.09765625 -73.4215625 76.09765625 -74.1015625 76.09765625 C-73.8953125 76.71640625 -73.6890625 77.33515625 -73.4765625 77.97265625 C-73.3528125 78.67390625 -73.2290625 79.37515625 -73.1015625 80.09765625 C-75.1015625 82.09765625 -75.1015625 82.09765625 -77.62353516 82.32470703 C-79.17886963 82.30899658 -79.17886963 82.30899658 -80.765625 82.29296875 C-81.88710937 82.28652344 -83.00859375 82.28007812 -84.1640625 82.2734375 C-85.9275 82.24830078 -85.9275 82.24830078 -87.7265625 82.22265625 C-88.90992188 82.21363281 -90.09328125 82.20460938 -91.3125 82.1953125 C-94.24238773 82.17168437 -97.1718759 82.13874139 -100.1015625 82.09765625 C-100.4315625 80.11765625 -100.7615625 78.13765625 -101.1015625 76.09765625 C-104.0715625 77.41765625 -107.0415625 78.73765625 -110.1015625 80.09765625 C-107.4615625 80.42765625 -104.8215625 80.75765625 -102.1015625 81.09765625 C-102.1015625 81.42765625 -102.1015625 81.75765625 -102.1015625 82.09765625 C-109.17045028 82.94980404 -116.1104457 83.2251208 -123.2265625 83.16015625 C-124.18304688 83.15564453 -125.13953125 83.15113281 -126.125 83.14648438 C-128.45059008 83.13485642 -130.7760401 83.11851727 -133.1015625 83.09765625 C-133.1015625 82.43765625 -133.1015625 81.77765625 -133.1015625 81.09765625 C-134.10316406 81.12085938 -135.10476562 81.1440625 -136.13671875 81.16796875 C-137.47915914 81.18674414 -138.82160768 81.20494243 -140.1640625 81.22265625 C-142.13052734 81.25746094 -142.13052734 81.25746094 -144.13671875 81.29296875 C-148.21980549 81.09183147 -151.25155303 80.36931087 -155.1015625 79.09765625 C-155.5965625 80.58265625 -155.5965625 80.58265625 -156.1015625 82.09765625 C-164.6815625 82.09765625 -173.2615625 82.09765625 -182.1015625 82.09765625 C-182.4315625 81.10765625 -182.7615625 80.11765625 -183.1015625 79.09765625 C-181.7815625 79.09765625 -180.4615625 79.09765625 -179.1015625 79.09765625 C-178.6065625 77.61265625 -178.6065625 77.61265625 -178.1015625 76.09765625 C-174.8015625 76.09765625 -171.5015625 76.09765625 -168.1015625 76.09765625 C-168.1015625 75.10765625 -168.1015625 74.11765625 -168.1015625 73.09765625 C-173.7115625 73.09765625 -179.3215625 73.09765625 -185.1015625 73.09765625 C-186.1015625 66.09765625 -186.1015625 66.09765625 -185.1015625 64.09765625 C-186.7515625 64.09765625 -188.4015625 64.09765625 -190.1015625 64.09765625 C-190.1015625 63.10765625 -190.1015625 62.11765625 -190.1015625 61.09765625 C-189.4415625 61.09765625 -188.7815625 61.09765625 -188.1015625 61.09765625 C-188.1015625 60.43765625 -188.1015625 59.77765625 -188.1015625 59.09765625 C-186.4515625 59.09765625 -184.8015625 59.09765625 -183.1015625 59.09765625 C-183.4521875 58.19015625 -183.8028125 57.28265625 -184.1640625 56.34765625 C-185.06625029 53.22007189 -185.23537757 52.04557544 -184.1015625 49.09765625 C-185.7515625 49.09765625 -187.4015625 49.09765625 -189.1015625 49.09765625 C-188.7715625 48.10765625 -188.4415625 47.11765625 -188.1015625 46.09765625 C-187.4415625 46.09765625 -186.7815625 46.09765625 -186.1015625 46.09765625 C-186.1015625 45.10765625 -186.1015625 44.11765625 -186.1015625 43.09765625 C-189.0715625 42.76765625 -192.0415625 42.43765625 -195.1015625 42.09765625 C-195.1015625 42.75765625 -195.1015625 43.41765625 -195.1015625 44.09765625 C-196.4215625 44.09765625 -197.7415625 44.09765625 -199.1015625 44.09765625 C-199.1015625 45.41765625 -199.1015625 46.73765625 -199.1015625 48.09765625 C-198.1115625 48.42765625 -197.1215625 48.75765625 -196.1015625 49.09765625 C-196.60760242 51.26639877 -197.10140063 53.09733252 -198.1015625 55.09765625 C-197.4415625 55.09765625 -196.7815625 55.09765625 -196.1015625 55.09765625 C-196.1015625 56.41765625 -196.1015625 57.73765625 -196.1015625 59.09765625 C-195.1115625 59.09765625 -194.1215625 59.09765625 -193.1015625 59.09765625 C-193.1015625 59.75765625 -193.1015625 60.41765625 -193.1015625 61.09765625 C-194.0915625 61.09765625 -195.0815625 61.09765625 -196.1015625 61.09765625 C-196.1015625 64.06765625 -196.1015625 67.03765625 -196.1015625 70.09765625 C-194.9878125 70.07703125 -193.8740625 70.05640625 -192.7265625 70.03515625 C-189.1015625 70.09765625 -189.1015625 70.09765625 -187.1015625 71.09765625 C-187.1015625 71.75765625 -187.1015625 72.41765625 -187.1015625 73.09765625 C-189.4115625 73.09765625 -191.7215625 73.09765625 -194.1015625 73.09765625 C-194.1015625 74.41765625 -194.1015625 75.73765625 -194.1015625 77.09765625 C-195.4215625 77.09765625 -196.7415625 77.09765625 -198.1015625 77.09765625 C-198.1015625 77.75765625 -198.1015625 78.41765625 -198.1015625 79.09765625 C-196.1215625 79.09765625 -194.1415625 79.09765625 -192.1015625 79.09765625 C-192.5965625 80.58265625 -192.5965625 80.58265625 -193.1015625 82.09765625 C-201.6815625 82.09765625 -210.2615625 82.09765625 -219.1015625 82.09765625 C-219.4315625 81.43765625 -219.7615625 80.77765625 -220.1015625 80.09765625 C-220.80829102 80.24058105 -221.51501953 80.38350586 -222.24316406 80.53076172 C-230.18646565 82.01156281 -237.78623573 82.341264 -245.8515625 82.22265625 C-247.0375 82.21363281 -248.2234375 82.20460938 -249.4453125 82.1953125 C-252.33095157 82.17204122 -255.21614105 82.13935309 -258.1015625 82.09765625 C-257.1115625 81.10765625 -257.1115625 81.10765625 -256.1015625 80.09765625 C-255.1115625 80.09765625 -254.1215625 80.09765625 -253.1015625 80.09765625 C-253.1015625 78.44765625 -253.1015625 76.79765625 -253.1015625 75.09765625 C-254.0915625 74.76765625 -255.0815625 74.43765625 -256.1015625 74.09765625 C-255.4415625 74.09765625 -254.7815625 74.09765625 -254.1015625 74.09765625 C-254.5965625 71.62265625 -254.5965625 71.62265625 -255.1015625 69.09765625 C-254.4415625 69.09765625 -253.7815625 69.09765625 -253.1015625 69.09765625 C-253.1015625 68.43765625 -253.1015625 67.77765625 -253.1015625 67.09765625 C-253.7615625 67.09765625 -254.4215625 67.09765625 -255.1015625 67.09765625 C-255.29660708 64.99417551 -255.48234746 62.8898304 -255.6640625 60.78515625 C-255.76847656 59.61339844 -255.87289062 58.44164062 -255.98046875 57.234375 C-256.1015625 54.09765625 -256.1015625 54.09765625 -255.1015625 51.09765625 C-255.06202016 48.764658 -255.05754518 46.43057436 -255.1015625 44.09765625 C-255.7615625 44.09765625 -256.4215625 44.09765625 -257.1015625 44.09765625 C-257.1015625 43.43765625 -257.1015625 42.77765625 -257.1015625 42.09765625 C-258.0915625 42.09765625 -259.0815625 42.09765625 -260.1015625 42.09765625 C-260.1015625 41.10765625 -260.1015625 40.11765625 -260.1015625 39.09765625 C-257.1315625 39.09765625 -254.1615625 39.09765625 -251.1015625 39.09765625 C-251.1015625 38.43765625 -251.1015625 37.77765625 -251.1015625 37.09765625 C-252.0915625 37.09765625 -253.0815625 37.09765625 -254.1015625 37.09765625 C-253.7715625 35.77765625 -253.4415625 34.45765625 -253.1015625 33.09765625 C-254.7515625 33.09765625 -256.4015625 33.09765625 -258.1015625 33.09765625 C-258.1015625 32.43765625 -258.1015625 31.77765625 -258.1015625 31.09765625 C-256.1215625 30.76765625 -254.1415625 30.43765625 -252.1015625 30.09765625 C-252.4315625 29.10765625 -252.7615625 28.11765625 -253.1015625 27.09765625 C-249.4715625 27.09765625 -245.8415625 27.09765625 -242.1015625 27.09765625 C-242.1015625 26.43765625 -242.1015625 25.77765625 -242.1015625 25.09765625 C-245.4015625 25.09765625 -248.7015625 25.09765625 -252.1015625 25.09765625 C-252.1015625 24.43765625 -252.1015625 23.77765625 -252.1015625 23.09765625 C-254.7415625 23.09765625 -257.3815625 23.09765625 -260.1015625 23.09765625 C-260.1015625 22.10765625 -260.1015625 21.11765625 -260.1015625 20.09765625 C-257.7915625 20.09765625 -255.4815625 20.09765625 -253.1015625 20.09765625 C-253.1015625 19.10765625 -253.1015625 18.11765625 -253.1015625 17.09765625 C-253.7615625 16.76765625 -254.4215625 16.43765625 -255.1015625 16.09765625 C-254.4415625 15.76765625 -253.7815625 15.43765625 -253.1015625 15.09765625 C-253.1015625 13.77765625 -253.1015625 12.45765625 -253.1015625 11.09765625 C-254.0915625 11.09765625 -255.0815625 11.09765625 -256.1015625 11.09765625 C-256.296875 5.04296875 -256.296875 5.04296875 -256.1015625 3.09765625 C-254.1015625 1.09765625 -254.1015625 1.09765625 -251.30419922 0.87060547 C-250.14162598 0.8810791 -248.97905273 0.89155273 -247.78125 0.90234375 C-245.89599609 0.91201172 -245.89599609 0.91201172 -243.97265625 0.921875 C-241.99458984 0.94701172 -241.99458984 0.94701172 -239.9765625 0.97265625 C-238.63672529 0.98268642 -237.29688098 0.99181221 -235.95703125 1 C-232.67169677 1.0236355 -229.38671785 1.05658391 -226.1015625 1.09765625 C-226.1015625 4.39765625 -226.1015625 7.69765625 -226.1015625 11.09765625 C-225.1115625 11.09765625 -224.1215625 11.09765625 -223.1015625 11.09765625 C-223.1015625 12.41765625 -223.1015625 13.73765625 -223.1015625 15.09765625 C-221.4515625 15.09765625 -219.8015625 15.09765625 -218.1015625 15.09765625 C-218.1015625 15.42765625 -218.1015625 15.75765625 -218.1015625 16.09765625 C-219.7515625 16.42765625 -221.4015625 16.75765625 -223.1015625 17.09765625 C-223.1015625 18.08765625 -223.1015625 19.07765625 -223.1015625 20.09765625 C-225.4115625 20.09765625 -227.7215625 20.09765625 -230.1015625 20.09765625 C-230.1015625 21.08765625 -230.1015625 22.07765625 -230.1015625 23.09765625 C-226.8015625 23.09765625 -223.5015625 23.09765625 -220.1015625 23.09765625 C-220.1015625 22.76765625 -220.1015625 22.43765625 -220.1015625 22.09765625 C-219.26383301 22.10289307 -218.42610352 22.10812988 -217.56298828 22.11352539 C-214.45817314 22.13055639 -211.35338179 22.14310107 -208.24853516 22.15258789 C-206.24249699 22.16009661 -204.23648048 22.17280095 -202.23046875 22.18554688 C-200.97363281 22.18876953 -199.71679688 22.19199219 -198.421875 22.1953125 C-197.25930176 22.20054932 -196.09672852 22.20578613 -194.89892578 22.21118164 C-192.14654058 22.29121908 -192.14654058 22.29121908 -190.1015625 21.09765625 C-187.68727928 20.97347661 -185.26900818 20.92200647 -182.8515625 20.91015625 C-181.54703125 20.89597656 -180.2425 20.88179688 -178.8984375 20.8671875 C-175.22534752 21.09014255 -172.4697335 21.64321877 -169.1015625 23.09765625 C-168.6065625 24.08765625 -168.6065625 24.08765625 -168.1015625 25.09765625 C-165.51550918 25.56598275 -165.51550918 25.56598275 -162.5390625 25.72265625 C-161.02119141 25.83480469 -161.02119141 25.83480469 -159.47265625 25.94921875 C-158.69019531 25.99820312 -157.90773438 26.0471875 -157.1015625 26.09765625 C-158.0915625 26.75765625 -159.0815625 27.41765625 -160.1015625 28.09765625 C-159.6065625 29.58265625 -159.6065625 29.58265625 -159.1015625 31.09765625 C-159.1015625 32.08765625 -159.1015625 33.07765625 -159.1015625 34.09765625 C-158.4415625 34.09765625 -157.7815625 34.09765625 -157.1015625 34.09765625 C-156.7303125 33.04578125 -156.7303125 33.04578125 -156.3515625 31.97265625 C-154.94204241 28.73076003 -153.08914189 26.01277268 -151.1015625 23.09765625 C-151.1015625 22.76765625 -151.1015625 22.43765625 -151.1015625 22.09765625 C-144.38337649 21.23635035 -137.80947263 20.91480945 -131.0390625 20.91015625 C-130.09740234 20.89791016 -129.15574219 20.88566406 -128.18554688 20.87304688 C-122.48431449 20.86114451 -117.53427518 21.30768733 -112.1015625 23.09765625 C-111.7715625 23.75765625 -111.4415625 24.41765625 -111.1015625 25.09765625 C-109.36630078 25.81795357 -107.63058508 26.53722112 -105.890625 27.24609375 C-103.38739864 28.43758577 -101.79935102 29.92448695 -100.1015625 32.09765625 C-100.1015625 33.08765625 -100.1015625 34.07765625 -100.1015625 35.09765625 C-98.1215625 35.09765625 -96.1415625 35.09765625 -94.1015625 35.09765625 C-94.1015625 34.43765625 -94.1015625 33.77765625 -94.1015625 33.09765625 C-95.0915625 33.09765625 -96.0815625 33.09765625 -97.1015625 33.09765625 C-97.1015625 32.43765625 -97.1015625 31.77765625 -97.1015625 31.09765625 C-96.4415625 31.09765625 -95.7815625 31.09765625 -95.1015625 31.09765625 C-95.1015625 30.43765625 -95.1015625 29.77765625 -95.1015625 29.09765625 C-96.7515625 28.76765625 -98.4015625 28.43765625 -100.1015625 28.09765625 C-99.2265625 23.22265625 -99.2265625 23.22265625 -98.1015625 22.09765625 C-96.24786639 22.0102798 -94.39088709 21.99067472 -92.53515625 22 C-91.41044922 22.00322266 -90.28574219 22.00644531 -89.12695312 22.00976562 C-87.94294922 22.01814453 -86.75894531 22.02652344 -85.5390625 22.03515625 C-84.35119141 22.03966797 -83.16332031 22.04417969 -81.93945312 22.04882812 C-78.99344024 22.0606595 -76.04752569 22.07714338 -73.1015625 22.09765625 C-72.7715625 24.40765625 -72.4415625 26.71765625 -72.1015625 29.09765625 C-68.83695277 27.29352982 -67.21226455 26.26370932 -65.1015625 23.09765625 C-57.59564608 20.19764309 -48.98711474 20.89313184 -41.1015625 21.09765625 C-41.1015625 21.75765625 -41.1015625 22.41765625 -41.1015625 23.09765625 C-40.4415625 23.09765625 -39.7815625 23.09765625 -39.1015625 23.09765625 C-39.1015625 23.75765625 -39.1015625 24.41765625 -39.1015625 25.09765625 C-37.7815625 25.09765625 -36.4615625 25.09765625 -35.1015625 25.09765625 C-35.1015625 25.75765625 -35.1015625 26.41765625 -35.1015625 27.09765625 C-34.1115625 26.76765625 -33.1215625 26.43765625 -32.1015625 26.09765625 C-33.0915625 25.10765625 -33.0915625 25.10765625 -34.1015625 24.09765625 C-31.46164982 21.45774357 -30.12209954 21.79524828 -26.4375 21.68359375 C-25.31601562 21.64492188 -24.19453125 21.60625 -23.0390625 21.56640625 C-21.8634375 21.53546875 -20.6878125 21.50453125 -19.4765625 21.47265625 C-18.29320312 21.43398438 -17.10984375 21.3953125 -15.890625 21.35546875 C-12.96109559 21.2609678 -10.03157653 21.17541067 -7.1015625 21.09765625 C-7.1015625 20.10765625 -7.1015625 19.11765625 -7.1015625 18.09765625 C-8.0915625 17.76765625 -9.0815625 17.43765625 -10.1015625 17.09765625 C-10.1015625 16.10765625 -10.1015625 15.11765625 -10.1015625 14.09765625 C-12.4115625 14.09765625 -14.7215625 14.09765625 -17.1015625 14.09765625 C-17.1015625 13.43765625 -17.1015625 12.77765625 -17.1015625 12.09765625 C-12.8115625 12.09765625 -8.5215625 12.09765625 -4.1015625 12.09765625 C-4.4315625 10.44765625 -4.7615625 8.79765625 -5.1015625 7.09765625 C-6.7515625 7.09765625 -8.4015625 7.09765625 -10.1015625 7.09765625 C-9.1115625 6.76765625 -8.1215625 6.43765625 -7.1015625 6.09765625 C-7.4315625 4.44765625 -7.7615625 2.79765625 -8.1015625 1.09765625 C-5.33538687 -0.28543156 -3.0913825 -0.01444571 0 0 Z " fill="#FAFAFA" transform="translate(293.1015625,252.90234375)"/>
<path d="M0 0 C1.051875 -0.01224609 2.10375 -0.02449219 3.1875 -0.03710938 C20.87950308 -0.06995344 20.87950308 -0.06995344 27.5 5.1875 C28.83333333 6.85416667 30.16666667 8.52083333 31.5 10.1875 C33.14142963 11.2284066 34.80712215 12.23254326 36.5 13.1875 C39.82529788 15.80023405 39.5667719 16.52135949 40.5 21.1875 C48.42 21.5175 56.34 21.8475 64.5 22.1875 C64.995 24.1675 64.995 24.1675 65.5 26.1875 C69.65474776 24.85136923 69.65474776 24.85136923 73.65698242 23.12939453 C77.58131346 21.82925978 81.19505803 21.93956549 85.30078125 21.9921875 C86.5553437 21.99643234 86.5553437 21.99643234 87.83525085 22.00076294 C90.49448226 22.0119168 93.15337118 22.03701237 95.8125 22.0625 C97.62043783 22.07253601 99.42838096 22.08166077 101.23632812 22.08984375 C105.65768312 22.11184041 110.07878358 22.14633706 114.5 22.1875 C115.5 26.9375 115.5 26.9375 115.5 29.1875 C117.15 29.5175 118.8 29.8475 120.5 30.1875 C121.49 28.7025 121.49 28.7025 122.5 27.1875 C126.22683201 25.00001165 128.11495124 24.1875 132.5 24.1875 C132.5 23.5275 132.5 22.8675 132.5 22.1875 C136.85422375 20.73609208 141.063818 21.00314131 145.625 21 C146.53765625 20.98775391 147.4503125 20.97550781 148.390625 20.96289062 C154.39946439 20.95005122 159.680833 21.68213267 165.5 23.1875 C165.5 23.8475 165.5 24.5075 165.5 25.1875 C168.14 25.8475 170.78 26.5075 173.5 27.1875 C173.5 28.1775 173.5 29.1675 173.5 30.1875 C174.49 30.8475 175.48 31.5075 176.5 32.1875 C176.5 31.1975 176.5 30.2075 176.5 29.1875 C177.16 29.1875 177.82 29.1875 178.5 29.1875 C178.5 28.5275 178.5 27.8675 178.5 27.1875 C177.51 26.8575 176.52 26.5275 175.5 26.1875 C176.16 26.1875 176.82 26.1875 177.5 26.1875 C177.335 25.671875 177.17 25.15625 177 24.625 C176.34951 21.45386124 176.4379266 18.41531666 176.5 15.1875 C174.52 14.5275 172.54 13.8675 170.5 13.1875 C170.5 12.5275 170.5 11.8675 170.5 11.1875 C172.15 10.8575 173.8 10.5275 175.5 10.1875 C175.5 9.5275 175.5 8.8675 175.5 8.1875 C177.15 7.8575 178.8 7.5275 180.5 7.1875 C172.91 6.8575 165.32 6.5275 157.5 6.1875 C157.5 5.1975 157.5 4.2075 157.5 3.1875 C161.955 2.6925 161.955 2.6925 166.5 2.1875 C166.5 1.5275 166.5 0.8675 166.5 0.1875 C170.45831733 0.15809536 174.41660597 0.14056672 178.375 0.125 C179.48359375 0.11662109 180.5921875 0.10824219 181.734375 0.09960938 C188.39051489 0.08003249 194.8939117 0.35870222 201.5 1.1875 C201.5 1.8475 201.5 2.5075 201.5 3.1875 C195.89 3.1875 190.28 3.1875 184.5 3.1875 C184.5 3.8475 184.5 4.5075 184.5 5.1875 C192.09 5.5175 199.68 5.8475 207.5 6.1875 C207.83 6.8475 208.16 7.5075 208.5 8.1875 C206.52 8.1875 204.54 8.1875 202.5 8.1875 C202.5 8.8475 202.5 9.5075 202.5 10.1875 C201.860625 10.31125 201.22125 10.435 200.5625 10.5625 C199.881875 10.76875 199.20125 10.975 198.5 11.1875 C198.17 11.8475 197.84 12.5075 197.5 13.1875 C200.14 13.5175 202.78 13.8475 205.5 14.1875 C205.5 14.8475 205.5 15.5075 205.5 16.1875 C204.84 16.1875 204.18 16.1875 203.5 16.1875 C203.47291433 17.79157328 203.45356517 19.3957785 203.4375 21 C203.42009766 22.33998047 203.42009766 22.33998047 203.40234375 23.70703125 C203.38990033 26.32163791 203.38990033 26.32163791 204.5 29.1875 C204.17 30.1775 203.84 31.1675 203.5 32.1875 C202.84 32.1875 202.18 32.1875 201.5 32.1875 C201.5 32.8475 201.5 33.5075 201.5 34.1875 C205.13 33.8575 208.76 33.5275 212.5 33.1875 C211.18 32.8575 209.86 32.5275 208.5 32.1875 C210.25 27.3125 210.25 27.3125 212.5 26.1875 C212.83 24.8675 213.16 23.5475 213.5 22.1875 C223.07 22.1875 232.64 22.1875 242.5 22.1875 C242.83 23.8375 243.16 25.4875 243.5 27.1875 C241.0625 30 241.0625 30 238.5 32.1875 C240.95224694 32.08136164 240.95224694 32.08136164 243.5 31.1875 C244.87466625 28.71113988 244.87466625 28.71113988 245.5 26.1875 C247.81 26.1875 250.12 26.1875 252.5 26.1875 C252.5 25.5275 252.5 24.8675 252.5 24.1875 C254.81 23.8575 257.12 23.5275 259.5 23.1875 C259.5 22.5275 259.5 21.8675 259.5 21.1875 C262.9163019 20.14775594 266.06426012 20.05375125 269.625 20.0625 C270.67945313 20.05992187 271.73390625 20.05734375 272.8203125 20.0546875 C275.5 20.1875 275.5 20.1875 277.5 21.1875 C279.26856576 21.34128833 281.04012052 21.46176937 282.8125 21.5625 C287.10990135 21.90651769 290.03124484 22.43641832 293.5 25.1875 C292.18 25.8475 290.86 26.5075 289.5 27.1875 C291.81 27.1875 294.12 27.1875 296.5 27.1875 C296.314375 26.548125 296.12875 25.90875 295.9375 25.25 C295.793125 24.569375 295.64875 23.88875 295.5 23.1875 C296.5 22.1875 296.5 22.1875 299.22265625 22.08984375 C300.32480469 22.10144531 301.42695313 22.11304688 302.5625 22.125 C303.66722656 22.13402344 304.77195312 22.14304688 305.91015625 22.15234375 C306.76480469 22.16394531 307.61945313 22.17554688 308.5 22.1875 C308.17 20.2075 307.84 18.2275 307.5 16.1875 C305.52 15.6925 305.52 15.6925 303.5 15.1875 C304.16 14.8575 304.82 14.5275 305.5 14.1875 C305.5 13.1975 305.5 12.2075 305.5 11.1875 C304.51 10.5275 303.52 9.8675 302.5 9.1875 C304.48 9.1875 306.46 9.1875 308.5 9.1875 C308.5 8.5275 308.5 7.8675 308.5 7.1875 C307.84 7.1875 307.18 7.1875 306.5 7.1875 C306.875 4.25 306.875 4.25 307.5 1.1875 C310.16178221 -0.1433911 312.18739396 0.07481007 315.1640625 0.08984375 C316.28554688 0.09306641 317.40703125 0.09628906 318.5625 0.09960938 C319.738125 0.10798828 320.91375 0.11636719 322.125 0.125 C323.30835938 0.12951172 324.49171875 0.13402344 325.7109375 0.13867188 C328.64067507 0.15048533 331.57031272 0.16695742 334.5 0.1875 C334.55399736 1.64542884 334.59279177 3.10392712 334.625 4.5625 C334.64820313 5.37460938 334.67140625 6.18671875 334.6953125 7.0234375 C334.39706164 10.32805698 331.77085668 11.91664332 329.5 14.1875 C330.304375 14.39375 331.10875 14.6 331.9375 14.8125 C332.783125 15.26625 333.62875 15.72 334.5 16.1875 C335.16015625 19.2734375 335.16015625 19.2734375 335.5 22.1875 C336.53640625 22.12949219 337.5728125 22.07148438 338.640625 22.01171875 C340.01037156 21.96480962 341.38016692 21.91931068 342.75 21.875 C343.43191406 21.83310547 344.11382812 21.79121094 344.81640625 21.74804688 C346.828125 21.69921875 346.828125 21.69921875 350.5 22.1875 C352.984375 24.58203125 352.984375 24.58203125 354.5 27.1875 C354.5 27.8475 354.5 28.5075 354.5 29.1875 C353.18 29.1875 351.86 29.1875 350.5 29.1875 C350.5 29.8475 350.5 30.5075 350.5 31.1875 C351.16 31.1875 351.82 31.1875 352.5 31.1875 C352.17 33.4975 351.84 35.8075 351.5 38.1875 C352.82 38.1875 354.14 38.1875 355.5 38.1875 C355.5 38.8475 355.5 39.5075 355.5 40.1875 C352.45318939 42.21870707 351.89881676 42.43409875 348.48828125 42.3828125 C347.73095703 42.37636719 346.97363281 42.36992187 346.19335938 42.36328125 C345.40767578 42.34652344 344.62199219 42.32976562 343.8125 42.3125 C343.01521484 42.30347656 342.21792969 42.29445312 341.39648438 42.28515625 C339.430861 42.26161585 337.46539225 42.22574547 335.5 42.1875 C335.30515062 44.62461614 335.11884822 47.06187398 334.9375 49.5 C334.88142578 50.19029297 334.82535156 50.88058594 334.76757812 51.59179688 C334.53418495 54.81262274 334.46775782 57.09077345 335.5 60.1875 C336.55960937 60.16429687 337.61921875 60.14109375 338.7109375 60.1171875 C340.0989513 60.09843056 341.4869727 60.08023028 342.875 60.0625 C343.57367188 60.04574219 344.27234375 60.02898437 344.9921875 60.01171875 C346.82897486 59.99405733 348.66601963 60.08446739 350.5 60.1875 C351.16 60.8475 351.82 61.5075 352.5 62.1875 C354.86509361 62.48809943 357.24441881 62.68265012 359.625 62.8125 C360.90632813 62.88726562 362.18765625 62.96203125 363.5078125 63.0390625 C364.49523437 63.08804688 365.48265625 63.13703125 366.5 63.1875 C366.5 63.8475 366.5 64.5075 366.5 65.1875 C363.53 65.1875 360.56 65.1875 357.5 65.1875 C357.5 65.8475 357.5 66.5075 357.5 67.1875 C356.51 67.1875 355.52 67.1875 354.5 67.1875 C354.5 67.8475 354.5 68.5075 354.5 69.1875 C356.15 69.8475 357.8 70.5075 359.5 71.1875 C359.5 71.8475 359.5 72.5075 359.5 73.1875 C361.15 73.5175 362.8 73.8475 364.5 74.1875 C364.5 74.8475 364.5 75.5075 364.5 76.1875 C360.54 76.1875 356.58 76.1875 352.5 76.1875 C352.83 77.5075 353.16 78.8275 353.5 80.1875 C349.91218275 83.77531725 344.3524882 82.55696695 339.5 82.5625 C337.85064453 82.59923828 337.85064453 82.59923828 336.16796875 82.63671875 C328.97816034 82.66230526 322.81376763 81.8384901 316.5 78.1875 C316.17 77.5275 315.84 76.8675 315.5 76.1875 C316.16 75.8575 316.82 75.5275 317.5 75.1875 C317.17 74.5275 316.84 73.8675 316.5 73.1875 C317.16 73.1875 317.82 73.1875 318.5 73.1875 C318.5 72.5275 318.5 71.8675 318.5 71.1875 C315.53 70.8575 312.56 70.5275 309.5 70.1875 C310.16 69.8575 310.82 69.5275 311.5 69.1875 C311.83 67.8675 312.16 66.5475 312.5 65.1875 C315.47 65.1875 318.44 65.1875 321.5 65.1875 C321.5 64.5275 321.5 63.8675 321.5 63.1875 C316.88 63.1875 312.26 63.1875 307.5 63.1875 C307.5 61.5375 307.5 59.8875 307.5 58.1875 C307.17 57.1975 306.84 56.2075 306.5 55.1875 C307.16 55.1875 307.82 55.1875 308.5 55.1875 C308.5 54.5275 308.5 53.8675 308.5 53.1875 C306.52 53.8475 304.54 54.5075 302.5 55.1875 C302.83 56.1775 303.16 57.1675 303.5 58.1875 C302.5 59.1875 302.5 59.1875 299.54077148 59.30102539 C298.24727783 59.29578857 296.95378418 59.29055176 295.62109375 59.28515625 C294.59110008 59.28303383 294.59110008 59.28303383 293.54029846 59.28086853 C291.33932199 59.27525479 289.13844591 59.26270007 286.9375 59.25 C285.44856917 59.24498676 283.95963676 59.24042355 282.47070312 59.23632812 C278.81376925 59.22528093 275.15689442 59.20800713 271.5 59.1875 C271.5 59.8475 271.5 60.5075 271.5 61.1875 C269.19 61.1875 266.88 61.1875 264.5 61.1875 C265.16 62.5075 265.82 63.8275 266.5 65.1875 C269.91656024 65.35427282 269.91656024 65.35427282 273.5 65.1875 C274.16 64.5275 274.82 63.8675 275.5 63.1875 C278.20556641 62.96044922 278.20556641 62.96044922 281.6015625 62.9921875 C282.81328125 62.99863281 284.025 63.00507813 285.2734375 63.01171875 C287.17996094 63.03685547 287.17996094 63.03685547 289.125 63.0625 C290.40375 63.07152344 291.6825 63.08054688 293 63.08984375 C296.16685167 63.11347697 299.33333424 63.14642371 302.5 63.1875 C302.83 64.1775 303.16 65.1675 303.5 66.1875 C301.52 66.1875 299.54 66.1875 297.5 66.1875 C297.5 66.8475 297.5 67.5075 297.5 68.1875 C299.81 68.5175 302.12 68.8475 304.5 69.1875 C304.17 70.1775 303.84 71.1675 303.5 72.1875 C298.55 73.1775 298.55 73.1775 293.5 74.1875 C294.49 74.8475 295.48 75.5075 296.5 76.1875 C293.9392555 77.17147585 291.37658508 78.14979967 288.8125 79.125 C288.09126953 79.40279297 287.37003906 79.68058594 286.62695312 79.96679688 C285.92119141 80.23427734 285.21542969 80.50175781 284.48828125 80.77734375 C283.84415283 81.02347412 283.20002441 81.26960449 282.53637695 81.52319336 C276.69630824 83.42833986 271.01692086 83.37083886 264.9375 83.375 C263.99197266 83.38724609 263.04644531 83.39949219 262.07226562 83.41210938 C260.70424805 83.41500977 260.70424805 83.41500977 259.30859375 83.41796875 C258.48157959 83.42207764 257.65456543 83.42618652 256.80249023 83.43041992 C254.26933477 83.1631641 252.7328441 82.37058884 250.5 81.1875 C248.17504723 80.80000787 245.84148732 80.45767161 243.5 80.1875 C243.5 80.8475 243.5 81.5075 243.5 82.1875 C222.71 82.1875 201.92 82.1875 180.5 82.1875 C179.84 80.8675 179.18 79.5475 178.5 78.1875 C177.18 78.1875 175.86 78.1875 174.5 78.1875 C174.5 77.5275 174.5 76.8675 174.5 76.1875 C175.49 76.1875 176.48 76.1875 177.5 76.1875 C177.17 74.2075 176.84 72.2275 176.5 70.1875 C172.89007621 70.84335189 172.89007621 70.84335189 169.5 72.1875 C170.82 72.8475 172.14 73.5075 173.5 74.1875 C173.4375 76 173.4375 76 172.5 78.1875 C162.66814754 83.6263971 149.52268561 85.02378262 138.5 83.1875 C133.46664993 81.54818711 129.0420296 78.87025686 124.5 76.1875 C123.51 75.8575 122.52 75.5275 121.5 75.1875 C121.5 74.5275 121.5 73.8675 121.5 73.1875 C119.52 73.1875 117.54 73.1875 115.5 73.1875 C115.5 74.1775 115.5 75.1675 115.5 76.1875 C114.84 76.1875 114.18 76.1875 113.5 76.1875 C113.685625 76.80625 113.87125 77.425 114.0625 78.0625 C114.5 80.1875 114.5 80.1875 113.5 82.1875 C105.25 82.1875 97 82.1875 88.5 82.1875 C87.84 80.2075 87.18 78.2275 86.5 76.1875 C87.16 76.1875 87.82 76.1875 88.5 76.1875 C88.41621094 75.30449219 88.33242187 74.42148438 88.24609375 73.51171875 C87.60108423 65.91040404 87.49636435 58.75336878 88.5 51.1875 C87.84 51.1875 87.18 51.1875 86.5 51.1875 C86.5 50.5275 86.5 49.8675 86.5 49.1875 C85.51 49.1875 84.52 49.1875 83.5 49.1875 C83.5 48.5275 83.5 47.8675 83.5 47.1875 C85.48 47.1875 87.46 47.1875 89.5 47.1875 C89.17 45.8675 88.84 44.5475 88.5 43.1875 C86.19 42.8575 83.88 42.5275 81.5 42.1875 C81.5 42.8475 81.5 43.5075 81.5 44.1875 C82.49 44.5175 83.48 44.8475 84.5 45.1875 C82.68884044 46.99865956 79.88721773 46.56949448 77.4375 46.75 C76.33277344 46.83378906 75.22804688 46.91757813 74.08984375 47.00390625 C73.23519531 47.06449219 72.38054687 47.12507813 71.5 47.1875 C71.5 48.1775 71.5 49.1675 71.5 50.1875 C70.18 50.1875 68.86 50.1875 67.5 50.1875 C67.754496 51.66956495 68.02911762 53.14818615 68.3125 54.625 C68.53873047 55.86056641 68.53873047 55.86056641 68.76953125 57.12109375 C69.13111328 58.14396484 69.13111328 58.14396484 69.5 59.1875 C70.985 59.6825 70.985 59.6825 72.5 60.1875 C72.5 60.8475 72.5 61.5075 72.5 62.1875 C70.85 62.8475 69.2 63.5075 67.5 64.1875 C67.5 65.1775 67.5 66.1675 67.5 67.1875 C66.51 67.1875 65.52 67.1875 64.5 67.1875 C64.5 67.8475 64.5 68.5075 64.5 69.1875 C65.82 69.1875 67.14 69.1875 68.5 69.1875 C68.542721 70.85361905 68.54063832 72.52132885 68.5 74.1875 C68.17 74.5175 67.84 74.8475 67.5 75.1875 C67.17 77.4975 66.84 79.8075 66.5 82.1875 C57.59 82.1875 48.68 82.1875 39.5 82.1875 C39.5 80.8675 39.5 79.5475 39.5 78.1875 C32.24 78.5175 24.98 78.8475 17.5 79.1875 C20.47 79.5175 23.44 79.8475 26.5 80.1875 C26.5 80.5175 26.5 80.8475 26.5 81.1875 C17.22357025 82.53330328 8.0688198 83.39615742 -1.3125 83.4375 C-2.16553711 83.44652344 -3.01857422 83.45554687 -3.89746094 83.46484375 C-4.70086914 83.46097656 -5.50427734 83.45710938 -6.33203125 83.453125 C-7.04077393 83.45086914 -7.7495166 83.44861328 -8.47973633 83.44628906 C-10.82613602 83.14572306 -12.41492225 82.27560855 -14.5 81.1875 C-17.57767727 80.86114228 -20.63059387 80.74739072 -23.72265625 80.62890625 C-26.5 80.1875 -26.5 80.1875 -29.5 77.1875 C-22.24 77.1875 -14.98 77.1875 -7.5 77.1875 C-9.09959844 74.03639597 -9.09959844 74.03639597 -11.47119141 73.75512695 C-12.25671387 73.72894287 -13.04223633 73.70275879 -13.8515625 73.67578125 C-15.12773438 73.62260742 -15.12773438 73.62260742 -16.4296875 73.56835938 C-17.31914063 73.54580078 -18.20859375 73.52324219 -19.125 73.5 C-20.0221875 73.46583984 -20.919375 73.43167969 -21.84375 73.39648438 C-24.06237538 73.31387598 -26.2805994 73.24477281 -28.5 73.1875 C-28.91378906 72.23617187 -28.91378906 72.23617187 -29.3359375 71.265625 C-30.8895534 68.49205568 -32.54257982 68.12142216 -35.5 67.1875 C-35.5 65.2075 -35.5 63.2275 -35.5 61.1875 C-34.51 60.6925 -34.51 60.6925 -33.5 60.1875 C-34.985 59.6925 -34.985 59.6925 -36.5 59.1875 C-36.5 58.5275 -36.5 57.8675 -36.5 57.1875 C-38.48 57.1875 -40.46 57.1875 -42.5 57.1875 C-42.5 56.5275 -42.5 55.8675 -42.5 55.1875 C-39.86 55.1875 -37.22 55.1875 -34.5 55.1875 C-34.5 54.5275 -34.5 53.8675 -34.5 53.1875 C-33.84 53.1875 -33.18 53.1875 -32.5 53.1875 C-32.5 52.5275 -32.5 51.8675 -32.5 51.1875 C-37.45 51.1875 -42.4 51.1875 -47.5 51.1875 C-43.97320901 48.83630601 -42.47120515 48.97306548 -38.3125 49.0625 C-37.22582031 49.08054688 -36.13914062 49.09859375 -35.01953125 49.1171875 C-34.18808594 49.14039063 -33.35664062 49.16359375 -32.5 49.1875 C-32.5 48.5275 -32.5 47.8675 -32.5 47.1875 C-35.47 47.1875 -38.44 47.1875 -41.5 47.1875 C-41.5 46.1975 -41.5 45.2075 -41.5 44.1875 C-42.82 43.8575 -44.14 43.5275 -45.5 43.1875 C-45.5 42.5275 -45.5 41.8675 -45.5 41.1875 C-47.48 41.1875 -49.46 41.1875 -51.5 41.1875 C-51.5 40.8575 -51.5 40.5275 -51.5 40.1875 C-46.88 39.8575 -42.26 39.5275 -37.5 39.1875 C-37.17 37.8675 -36.84 36.5475 -36.5 35.1875 C-35.18 35.1875 -33.86 35.1875 -32.5 35.1875 C-32.5 34.1975 -32.5 33.2075 -32.5 32.1875 C-28.54 32.1875 -24.58 32.1875 -20.5 32.1875 C-20.5 31.1975 -20.5 30.2075 -20.5 29.1875 C-22.48 29.1875 -24.46 29.1875 -26.5 29.1875 C-26.5 28.5275 -26.5 27.8675 -26.5 27.1875 C-32.77 26.8575 -39.04 26.5275 -45.5 26.1875 C-45.5 25.8575 -45.5 25.5275 -45.5 25.1875 C-38.57 25.1875 -31.64 25.1875 -24.5 25.1875 C-24.5 24.5275 -24.5 23.8675 -24.5 23.1875 C-28.46 22.8575 -32.42 22.5275 -36.5 22.1875 C-35.860625 21.300625 -35.22125 20.41375 -34.5625 19.5 C-32.07002478 15.49693374 -31.5 12.82736058 -31.5 8.1875 C-30.18 8.1875 -28.86 8.1875 -27.5 8.1875 C-27.83 7.1975 -28.16 6.2075 -28.5 5.1875 C-27.54287109 5.09662109 -27.54287109 5.09662109 -26.56640625 5.00390625 C-25.74011719 4.92011719 -24.91382812 4.83632812 -24.0625 4.75 C-23.23878906 4.66878906 -22.41507813 4.58757812 -21.56640625 4.50390625 C-19.51337975 4.39819185 -19.51337975 4.39819185 -18.5 3.1875 C-16.83382885 3.14686168 -15.16611905 3.144779 -13.5 3.1875 C-13.5 2.5275 -13.5 1.8675 -13.5 1.1875 C-9.49561299 -0.81469351 -4.40125441 0.00261979 0 0 Z " fill="#F8F8F8" transform="translate(97.5,160.8125)"/>
<path d="M0 0 C0.99 0 1.98 0 3 0 C3 0.66 3 1.32 3 2 C4.32 2 5.64 2 7 2 C7 3.32 7 4.64 7 6 C5.68 6 4.36 6 3 6 C3.185625 6.598125 3.37125 7.19625 3.5625 7.8125 C4 10 4 10 3 13 C0.03 13 -2.94 13 -6 13 C-6 13.66 -6 14.32 -6 15 C-5.34 15 -4.68 15 -4 15 C-4 15.66 -4 16.32 -4 17 C-0.37 17.33 3.26 17.66 7 18 C7 18.66 7 19.32 7 20 C6.01 20.66 5.02 21.32 4 22 C4.495 22.99 4.495 22.99 5 24 C2.35409986 24.02684679 -0.29153096 24.04676357 -2.9375 24.0625 C-3.69224609 24.07087891 -4.44699219 24.07925781 -5.22460938 24.08789062 C-7.14994313 24.09652441 -9.07535581 24.05224333 -11 24 C-11.33 23.67 -11.66 23.34 -12 23 C-14.95529504 22.83970312 -17.88982457 22.74042672 -20.84765625 22.68359375 C-22.17729652 22.6524221 -22.17729652 22.6524221 -23.53379822 22.62062073 C-26.376617 22.555026 -29.21953117 22.49619448 -32.0625 22.4375 C-33.98503606 22.3943242 -35.90756234 22.35071022 -37.83007812 22.30664062 C-42.55328668 22.19933457 -47.27659153 22.09809549 -52 22 C-48.59568053 19.73045369 -46.83475798 19.63450051 -42.8125 19.375 C-41.72582031 19.30023438 -40.63914062 19.22546875 -39.51953125 19.1484375 C-38.68808594 19.09945312 -37.85664062 19.05046875 -37 19 C-39.97 18.67 -42.94 18.34 -46 18 C-46 17.01 -46 16.02 -46 15 C-47.32 14.67 -48.64 14.34 -50 14 C-50 13.34 -50 12.68 -50 12 C-51.65 12 -53.3 12 -55 12 C-55 11.67 -55 11.34 -55 11 C-48.565 10.505 -48.565 10.505 -42 10 C-41.67 8.68 -41.34 7.36 -41 6 C-39.68 6 -38.36 6 -37 6 C-37 5.01 -37 4.02 -37 3 C-25.12 2.67 -13.24 2.34 -1 2 C-0.67 1.34 -0.34 0.68 0 0 Z " fill="#060606" transform="translate(132,190)"/>
<path d="M0 0 C3.79165074 -0.0289337 7.58327327 -0.04677601 11.375 -0.0625 C12.45523438 -0.07087891 13.53546875 -0.07925781 14.6484375 -0.08789062 C16.1953125 -0.09272461 16.1953125 -0.09272461 17.7734375 -0.09765625 C18.72653809 -0.10289307 19.67963867 -0.10812988 20.66162109 -0.11352539 C23 0 23 0 25 1 C25.02725341 2.7290774 25.04650987 4.45828176 25.0625 6.1875 C25.07410156 7.15042969 25.08570313 8.11335937 25.09765625 9.10546875 C24.87081393 15.82907505 24.87081393 15.82907505 22.79003906 18.62695312 C20.33920717 20.50686019 18.74026023 20.34376122 15.67578125 20.29296875 C14.64775391 20.28330078 13.61972656 20.27363281 12.56054688 20.26367188 C10.95276367 20.2259668 10.95276367 20.2259668 9.3125 20.1875 C8.22904297 20.17396484 7.14558594 20.16042969 6.02929688 20.14648438 C3.35236595 20.11110643 0.67643162 20.06174189 -2 20 C-3.125 13.375 -3.125 13.375 -2 10 C-1.93334624 8.60560336 -1.91461801 7.20830125 -1.9375 5.8125 C-1.958125 4.554375 -1.97875 3.29625 -2 2 C-1.34 2 -0.68 2 0 2 C0 1.34 0 0.68 0 0 Z " fill="#FBFBFB" transform="translate(188,156)"/>
<path d="M0 0 C3.79160297 -0.05786668 7.58309311 -0.09355054 11.375 -0.125 C12.45523438 -0.14175781 13.53546875 -0.15851563 14.6484375 -0.17578125 C15.6796875 -0.18222656 16.7109375 -0.18867188 17.7734375 -0.1953125 C19.20308838 -0.21102295 19.20308838 -0.21102295 20.66162109 -0.22705078 C23 0 23 0 25 2 C24.8707868 4.91610697 24.62672394 7.67820735 24.25 10.5625 C24.16234375 11.35591797 24.0746875 12.14933594 23.984375 12.96679688 C23.7356736 14.98922288 23.37589568 16.99731136 23 19 C20.44276771 20.27861615 18.63262898 20.11336609 15.7734375 20.09765625 C14.7421875 20.09443359 13.7109375 20.09121094 12.6484375 20.08789062 C11.02808594 20.07532227 11.02808594 20.07532227 9.375 20.0625 C7.74304688 20.05573242 7.74304688 20.05573242 6.078125 20.04882812 C3.38536211 20.03701776 0.69270812 20.02054778 -2 20 C-2.75397163 15.52643502 -3.06342382 11.57081436 -2.5625 7.0625 C-2.46066406 6.10472656 -2.35882813 5.14695313 -2.25390625 4.16015625 C-2.17011719 3.44730469 -2.08632812 2.73445312 -2 2 C-1.34 2 -0.68 2 0 2 C0 1.34 0 0.68 0 0 Z " fill="#FCFCFC" transform="translate(196,248)"/>
<path d="M0 0 C-0.33 0.66 -0.66 1.32 -1 2 C2.96 2.33 6.92 2.66 11 3 C11 3.33 11 3.66 11 4 C16.28 4.33 21.56 4.66 27 5 C28 9 28 9 27 12 C27.66 12 28.32 12 29 12 C29.495 13.98 29.495 13.98 30 16 C29.0255896 16.03758423 29.0255896 16.03758423 28.03149414 16.07592773 C25.04168912 16.19313851 22.05210465 16.31528919 19.0625 16.4375 C18.04091797 16.47681641 17.01933594 16.51613281 15.96679688 16.55664062 C9.94074759 16.80692382 3.96440498 17.0762819 -2 18 C-2.33 18.66 -2.66 19.32 -3 20 C-2.34 20 -1.68 20 -1 20 C-1 20.66 -1 21.32 -1 22 C-4.63 22 -8.26 22 -12 22 C-13 17 -13 17 -13 13 C-11.02 13 -9.04 13 -7 13 C-7 12.34 -7 11.68 -7 11 C-4.11584117 9.55792059 -1.58278472 9.90605113 1.625 9.9375 C2.81351563 9.94652344 4.00203125 9.95554688 5.2265625 9.96484375 C6.14179688 9.97644531 7.05703125 9.98804688 8 10 C8 9.01 8 8.02 8 7 C5.36 7 2.72 7 0 7 C1.32 6.67 2.64 6.34 4 6 C4 5.34 4 4.68 4 4 C-0.29 3.67 -4.58 3.34 -9 3 C-7 0 -7 0 -5.0625 -0.75 C-3 -1 -3 -1 0 0 Z " fill="#070707" transform="translate(247,202)"/>
<path d="M0 0 C2.97 0 5.94 0 9 0 C9 0.66 9 1.32 9 2 C12.3 2 15.6 2 19 2 C19 2.33 19 2.66 19 3 C17.35 3 15.7 3 14 3 C14 3.99 14 4.98 14 6 C14.66 6.33 15.32 6.66 16 7 C15.01 7.33 14.02 7.66 13 8 C13.53367187 8.23074219 14.06734375 8.46148437 14.6171875 8.69921875 C18.74466206 10.50588149 22.73466674 12.39925792 26.6875 14.5625 C32.79396447 17.68808371 39.29183117 18.81108823 46 20 C46.495 21.98 46.495 21.98 47 24 C44.75 24.6875 44.75 24.6875 42 25 C41.38012207 24.52054932 40.76024414 24.04109863 40.12158203 23.54711914 C37.62597147 21.72724755 36.35494932 21.60962498 33.3046875 21.55859375 C32.42425781 21.53216797 31.54382813 21.50574219 30.63671875 21.47851562 C29.72535156 21.46498047 28.81398438 21.45144531 27.875 21.4375 C26.05971267 21.4031292 24.24455632 21.36056136 22.4296875 21.30859375 C21.62772949 21.29626709 20.82577148 21.28394043 19.99951172 21.27124023 C18 21 18 21 16 19 C13.43083343 18.69400937 10.95241616 18.48912913 8.375 18.375 C7.66859375 18.33632813 6.9621875 18.29765625 6.234375 18.2578125 C4.49001476 18.16352276 2.74504309 18.08067109 1 18 C-1.06440531 13.8160335 -1.0902668 10.79364129 -0.625 6.1875 C-0.51414062 5.02605469 -0.40328125 3.86460937 -0.2890625 2.66796875 C-0.19367188 1.78753906 -0.09828125 0.90710938 0 0 Z " fill="#050505" transform="translate(390,295)"/>
<path d="M0 0 C1.64666203 0.1135629 3.29236082 0.24117381 4.9375 0.375 C6.31228516 0.47941406 6.31228516 0.47941406 7.71484375 0.5859375 C8.84599609 0.79089844 8.84599609 0.79089844 10 1 C10.33 1.66 10.66 2.32 11 3 C10.67 3.66 10.34 4.32 10 5 C9.34 5 8.68 5 8 5 C8 5.66 8 6.32 8 7 C9.32 7.33 10.64 7.66 12 8 C11.979375 8.9075 11.95875 9.815 11.9375 10.75 C11.9889755 13.42672588 12.2215017 15.46988052 13 18 C11.35 18 9.7 18 8 18 C8 18.66 8 19.32 8 20 C7.34 20 6.68 20 6 20 C6 20.99 6 21.98 6 23 C7.65 23 9.3 23 11 23 C11.02689216 24.47906892 11.04634621 25.95827483 11.0625 27.4375 C11.07410156 28.26121094 11.08570312 29.08492188 11.09765625 29.93359375 C11 32 11 32 10 33 C7.66702567 33.04092937 5.33294775 33.04241723 3 33 C3 34.65 3 36.3 3 38 C1.35 38 -0.3 38 -2 38 C-2 37.34 -2 36.68 -2 36 C-0.68 36 0.64 36 2 36 C2 34.68 2 33.36 2 32 C4.31 32 6.62 32 9 32 C9 31.34 9 30.68 9 30 C6.03 29.67 3.06 29.34 0 29 C-0.95904856 25.16380575 -0.91892116 23.67568464 0 20 C0.99 20 1.98 20 3 20 C3 19.34 3 18.68 3 18 C2.01 18 1.02 18 0 18 C0 16.68 0 15.36 0 14 C-0.66 14 -1.32 14 -2 14 C-1.34 12.02 -0.68 10.04 0 8 C-1.32 7.67 -2.64 7.34 -4 7 C-3.67 5.68 -3.34 4.36 -3 3 C-1.68 3 -0.36 3 1 3 C0.67 2.01 0.34 1.02 0 0 Z " fill="#161616" transform="translate(97,294)"/>
<path d="M0 0 C0 0.66 0 1.32 0 2 C2.97 2.495 2.97 2.495 6 3 C5.01 3.33 4.02 3.66 3 4 C3.12568359 5.04800781 3.12568359 5.04800781 3.25390625 6.1171875 C3.35574219 7.02726562 3.45757812 7.93734375 3.5625 8.875 C3.66691406 9.77992188 3.77132813 10.68484375 3.87890625 11.6171875 C4 14 4 14 3 16 C3.66 16 4.32 16 5 16 C5.12375 17.423125 5.12375 17.423125 5.25 18.875 C5.65074923 22.10461791 5.65074923 22.10461791 8.0625 23.375 C9.0215625 23.684375 9.0215625 23.684375 10 24 C5.80071558 26.79952295 4.35074043 27.08321702 -0.625 26.5625 C-1.62789063 26.46066406 -2.63078125 26.35882813 -3.6640625 26.25390625 C-4.43492187 26.17011719 -5.20578125 26.08632813 -6 26 C-4.625 24.5 -4.625 24.5 -3 23 C-2.34 23 -1.68 23 -1 23 C-1 22.34 -1 21.68 -1 21 C-4.3 20.67 -7.6 20.34 -11 20 C-11 19.34 -11 18.68 -11 18 C-10.34 18 -9.68 18 -9 18 C-8.91773332 14.95613276 -9.02391783 12.92824652 -10 10 C-10.99 9.67 -11.98 9.34 -13 9 C-12.34 9 -11.68 9 -11 9 C-11 8.01 -11 7.02 -11 6 C-10.34 6 -9.68 6 -9 6 C-9 4.68 -9 3.36 -9 2 C-5.86501708 0.14223235 -3.62528568 -0.20140476 0 0 Z " fill="#161616" transform="translate(324,294)"/>
<path d="M0 0 C1.93719378 -0.05406122 3.87481921 -0.09282025 5.8125 -0.125 C6.89144531 -0.14820313 7.97039062 -0.17140625 9.08203125 -0.1953125 C12 0 12 0 15 2 C17.02542148 2.36351504 17.02542148 2.36351504 19.23046875 2.4140625 C20.03291016 2.45273437 20.83535156 2.49140625 21.66210938 2.53125 C22.91217773 2.57765625 22.91217773 2.57765625 24.1875 2.625 C25.03248047 2.66367187 25.87746094 2.70234375 26.74804688 2.7421875 C28.83167524 2.83636279 30.91580753 2.91926675 33 3 C33 3.66 33 4.32 33 5 C34.32 5.33 35.64 5.66 37 6 C36.34 6 35.68 6 35 6 C34.24572703 10.97906259 34.24572703 10.97906259 34 16 C31.36 15.01 28.72 14.02 26 13 C26 12.34 26 11.68 26 11 C22.60959706 7.50659748 19.39055267 7.58402727 14.6875 7.4375 C9.38101609 7.26043835 5.01285203 6.61474794 0 5 C0 4.67 0 4.34 0 4 C1.65 3.67 3.3 3.34 5 3 C3.35 2.67 1.7 2.34 0 2 C0 1.34 0 0.68 0 0 Z " fill="#1E1E1E" transform="translate(159,290)"/>
<path d="M0 0 C2.82828394 0.31425377 4.21908432 1.16287413 6.52734375 2.87890625 C10.61989819 5.65834162 15.11676799 6.61060408 19.875 7.75 C20.75414062 7.97042969 21.63328125 8.19085938 22.5390625 8.41796875 C24.69034981 8.95579058 26.843682 9.48279017 29 10 C29.495 11.98 29.495 11.98 30 14 C27.75 14.6875 27.75 14.6875 25 15 C24.40864258 14.52199951 23.81728516 14.04399902 23.20800781 13.55151367 C20.33329968 11.53152581 18.41319426 11.5738528 14.921875 11.48828125 C13.18164062 11.43510742 13.18164062 11.43510742 11.40625 11.38085938 C9.59640625 11.34702148 9.59640625 11.34702148 7.75 11.3125 C6.52796875 11.27833984 5.3059375 11.24417969 4.046875 11.20898438 C1.03134154 11.12652838 -1.98390194 11.05736799 -5 11 C-4.67 9.68 -4.34 8.36 -4 7 C-2.35 7 -0.7 7 1 7 C0.34 5.02 -0.32 3.04 -1 1 C-0.67 0.67 -0.34 0.34 0 0 Z " fill="#0A0A0A" transform="translate(137,305)"/>
<path d="M0 0 C1.97610386 2.04424538 3 3.1176825 3 6 C3.66 6 4.32 6 5 6 C5 6.66 5 7.32 5 8 C4.34 8 3.68 8 3 8 C3 9.65 3 11.3 3 13 C1.68 13 0.36 13 -1 13 C-0.67 14.65 -0.34 16.3 0 18 C-1.45947705 17.93993922 -2.91779272 17.8511311 -4.375 17.75 C-5.59316406 17.68039062 -5.59316406 17.68039062 -6.8359375 17.609375 C-9 17 -9 17 -10.2890625 14.953125 C-10.52367187 14.30859375 -10.75828125 13.6640625 -11 13 C-10.01 12.67 -9.02 12.34 -8 12 C-7.26676204 9.98491642 -7.26676204 9.98491642 -7 8 C-7.66 8 -8.32 8 -9 8 C-8.64005447 5.3364031 -8.28838998 3.41816548 -6.75 1.1875 C-4.30798538 -0.46958135 -2.88834165 -0.50545979 0 0 Z " fill="#0D0D0D" transform="translate(255,294)"/>
<path d="M0 0 C1.65 0.33 3.3 0.66 5 1 C5.33 3.64 5.66 6.28 6 9 C6.99 9.33 7.98 9.66 9 10 C9.33 11.65 9.66 13.3 10 15 C11.32 15 12.64 15 14 15 C14 15.66 14 16.32 14 17 C16.31 17 18.62 17 21 17 C21.33 17.66 21.66 18.32 22 19 C15.4 19 8.8 19 2 19 C2 18.34 2 17.68 2 17 C1.01 17 0.02 17 -1 17 C-1 16.34 -1 15.68 -1 15 C-0.34 15 0.32 15 1 15 C0.814375 14.4225 0.62875 13.845 0.4375 13.25 C-0.04023546 10.79307475 0.24270636 9.35602466 1 7 C0.34 7 -0.32 7 -1 7 C-1 6.34 -1 5.68 -1 5 C-0.34 4.67 0.32 4.34 1 4 C1.33 3.01 1.66 2.02 2 1 C1.34 0.67 0.68 0.34 0 0 Z " fill="#202020" transform="translate(300,222)"/>
<path d="M0 0 C0.33 1.32 0.66 2.64 1 4 C0.01 4 -0.98 4 -2 4 C-1.67 5.65 -1.34 7.3 -1 9 C-2.65 9 -4.3 9 -6 9 C-6 9.66 -6 10.32 -6 11 C-3.69 11 -1.38 11 1 11 C1 11.33 1 11.66 1 12 C6.445 12.495 6.445 12.495 12 13 C12 13.33 12 13.66 12 14 C10.02 14.33 8.04 14.66 6 15 C6 15.66 6 16.32 6 17 C3.75215576 17.24942657 1.50152494 17.47383488 -0.75 17.6875 C-2.00296875 17.81511719 -3.2559375 17.94273437 -4.546875 18.07421875 C-8.23931642 17.99485632 -9.41596392 17.53835868 -12 15 C-11.43804235 11.06629643 -10.44407389 8.16824393 -8 5 C-6.68 5 -5.36 5 -4 5 C-4 4.34 -4 3.68 -4 3 C-5.65 3 -7.3 3 -9 3 C-9 2.34 -9 1.68 -9 1 C-5.846632 0.29925156 -3.27275026 0 0 0 Z " fill="#292929" transform="translate(337,197)"/>
<path d="M0 0 C2.97 0 5.94 0 9 0 C8.91621094 1.05960937 8.83242188 2.11921875 8.74609375 3.2109375 C8.64293168 4.59893625 8.54008337 5.98695835 8.4375 7.375 C8.38142578 8.07367188 8.32535156 8.77234375 8.26757812 9.4921875 C7.88500096 13.36528865 7.88500096 13.36528865 9 17 C8.34 17 7.68 17 7 17 C7.33 18.65 7.66 20.3 8 22 C5.69 22 3.38 22 1 22 C1.99 21.67 2.98 21.34 4 21 C3.649375 20.38125 3.29875 19.7625 2.9375 19.125 C2.4734375 18.073125 2.4734375 18.073125 2 17 C2.33 16.34 2.66 15.68 3 15 C2.34 15 1.68 15 1 15 C1 13.02 1 11.04 1 9 C-0.65 9 -2.3 9 -4 9 C-4 8.67 -4 8.34 -4 8 C-2.35 8 -0.7 8 1 8 C0.67 5.36 0.34 2.72 0 0 Z " fill="#181818" transform="translate(355,295)"/>
<path d="M0 0 C3.95831733 -0.02940464 7.91660597 -0.04693328 11.875 -0.0625 C12.98359375 -0.07087891 14.0921875 -0.07925781 15.234375 -0.08789062 C21.89051489 -0.10746751 28.3939117 0.17120222 35 1 C35 1.66 35 2.32 35 3 C33.77369873 3.05534912 32.54739746 3.11069824 31.28393555 3.16772461 C26.73832029 3.37402155 22.19298145 3.58593749 17.64770508 3.79956055 C15.67967713 3.89126659 13.71157735 3.98144444 11.7434082 4.07006836 C8.91597587 4.19764849 6.08884658 4.33070507 3.26171875 4.46484375 C2.38037766 4.50343002 1.49903656 4.5420163 0.59098816 4.58177185 C-0.22963608 4.62173782 -1.05026031 4.6617038 -1.89575195 4.70288086 C-2.97830009 4.75284462 -2.97830009 4.75284462 -4.0827179 4.80381775 C-6.21957689 4.95207163 -6.21957689 4.95207163 -9 6 C-9 5.01 -9 4.02 -9 3 C-4.545 2.505 -4.545 2.505 0 2 C0 1.34 0 0.68 0 0 Z " fill="#D6D6D6" transform="translate(264,161)"/>
<path d="M0 0 C4.62 0 9.24 0 14 0 C14 0.66 14 1.32 14 2 C13.34 2 12.68 2 12 2 C12 2.66 12 3.32 12 4 C11.34 4 10.68 4 10 4 C10 4.99 10 5.98 10 7 C6.37 6.67 2.74 6.34 -1 6 C-1 5.34 -1 4.68 -1 4 C-3.64 4 -6.28 4 -9 4 C-9 3.34 -9 2.68 -9 2 C-6.03 2 -3.06 2 0 2 C0 1.34 0 0.68 0 0 Z " fill="#0B0B0B" transform="translate(94,214)"/>
<path d="M0 0 C27.94514191 -0.20638953 27.94514191 -0.20638953 41 1 C40.34 1.33 39.68 1.66 39 2 C39 2.66 39 3.32 39 4 C32.4 4 25.8 4 19 4 C19 3.34 19 2.68 19 2 C12.73 1.67 6.46 1.34 0 1 C0 0.67 0 0.34 0 0 Z " fill="#2D2D2D" transform="translate(83,186)"/>
<path d="M0 0 C0.99 0 1.98 0 3 0 C3 1.32 3 2.64 3 4 C3.62003906 3.98839844 4.24007812 3.97679687 4.87890625 3.96484375 C12.96332056 3.88246981 20.94295895 4.39110081 29 5 C29 5.33 29 5.66 29 6 C18.605 6.495 18.605 6.495 8 7 C8 7.33 8 7.66 8 8 C3.71 7.67 -0.58 7.34 -5 7 C-5 6.01 -5 5.02 -5 4 C-2.69 4 -0.38 4 2 4 C2 3.01 2 2.02 2 1 C1.34 0.67 0.68 0.34 0 0 Z " fill="#7F7F7F" transform="translate(68,269)"/>
<path d="M0 0 C3.3 0.33 6.6 0.66 10 1 C10 1.66 10 2.32 10 3 C10.99 3.33 11.98 3.66 13 4 C13 4.99 13 5.98 13 7 C8.05 7 3.1 7 -2 7 C-1.67 6.01 -1.34 5.02 -1 4 C-2.32 3.67 -3.64 3.34 -5 3 C-3.02 3 -1.04 3 1 3 C0.67 2.01 0.34 1.02 0 0 Z " fill="#393939" transform="translate(213,205)"/>
<path d="M0 0 C0.04254356 1.99954746 0.04080783 4.00041636 0 6 C-1 7 -1 7 -2.84765625 7.09765625 C-4.8984375 7.06510417 -6.94921875 7.03255208 -9 7 C-9.33 5.35 -9.66 3.7 -10 2 C-6.3558226 -0.4294516 -4.28758728 -0.16179575 0 0 Z " fill="#3A3A3A" transform="translate(406,203)"/>
<path d="M0 0 C1.65 0 3.3 0 5 0 C6.20628008 2.33214148 7.1654738 4.49642139 8 7 C5.03 7 2.06 7 -1 7 C-1 3 -1 3 0 0 Z " fill="#0F0F0F" transform="translate(364,198)"/>
<path d="M0 0 C0.99 0.66 1.98 1.32 3 2 C3 2.66 3 3.32 3 4 C4.32 4.66 5.64 5.32 7 6 C2.80071558 8.79952295 1.35074043 9.08321702 -3.625 8.5625 C-4.62789063 8.46066406 -5.63078125 8.35882813 -6.6640625 8.25390625 C-7.43492187 8.17011719 -8.20578125 8.08632813 -9 8 C-7.625 6.5 -7.625 6.5 -6 5 C-5.34 5 -4.68 5 -4 5 C-3.8453125 4.0409375 -3.8453125 4.0409375 -3.6875 3.0625 C-3.460625 2.381875 -3.23375 1.70125 -3 1 C-2.01 0.67 -1.02 0.34 0 0 Z " fill="#424242" transform="translate(327,312)"/>
<path d="M0 0 C0 2.31 0 4.62 0 7 C-0.99 7 -1.98 7 -3 7 C-3.33 7.99 -3.66 8.98 -4 10 C-5.32 9.67 -6.64 9.34 -8 9 C-7.01 9 -6.02 9 -5 9 C-5 7.68 -5 6.36 -5 5 C-6.32 4.34 -7.64 3.68 -9 3 C-5.92807025 0.26939578 -4.09590633 -0.34132553 0 0 Z " fill="#4C4C4C" transform="translate(275,230)"/>
<path d="M0 0 C0.33 1.32 0.66 2.64 1 4 C0.01 4 -0.98 4 -2 4 C-1.67 5.65 -1.34 7.3 -1 9 C-2.65 9 -4.3 9 -6 9 C-5.34 7.02 -4.68 5.04 -4 3 C-5.65 3 -7.3 3 -9 3 C-9 2.34 -9 1.68 -9 1 C-5.846632 0.29925156 -3.27275026 0 0 0 Z " fill="#424242" transform="translate(337,197)"/>
<path d="M0 0 C5.28 0 10.56 0 16 0 C16 0.66 16 1.32 16 2 C16.66 2.33 17.32 2.66 18 3 C11.73 3 5.46 3 -1 3 C-0.67 2.01 -0.34 1.02 0 0 Z " fill="#A3A3A3" transform="translate(331,207)"/>
<path d="M0 0 C-0.33 0.66 -0.66 1.32 -1 2 C2.96 2.33 6.92 2.66 11 3 C7.80594791 5.12936806 7.50812339 5.23418211 3.98828125 4.7578125 C3.23095703 4.66113281 2.47363281 4.56445312 1.69335938 4.46484375 C0.90767578 4.35269531 0.12199219 4.24054688 -0.6875 4.125 C-1.48478516 4.02058594 -2.28207031 3.91617188 -3.10351562 3.80859375 C-5.07041111 3.54948177 -7.03541767 3.27610346 -9 3 C-7 0 -7 0 -5.0625 -0.75 C-3 -1 -3 -1 0 0 Z " fill="#3E3E3E" transform="translate(247,202)"/>
<path d="M0 0 C6.93 0 13.86 0 21 0 C21 1.32 21 2.64 21 4 C18.03 3.67 15.06 3.34 12 3 C12 2.67 12 2.34 12 2 C8.04 1.67 4.08 1.34 0 1 C0 0.67 0 0.34 0 0 Z " fill="#CBCBCB" transform="translate(71,240)"/>
<path d="M0 0 C0.99 0 1.98 0 3 0 C3 0.66 3 1.32 3 2 C3.66 2 4.32 2 5 2 C5 2.66 5 3.32 5 4 C6.65 4 8.3 4 10 4 C10 4.66 10 5.32 10 6 C3.25 7.125 3.25 7.125 1 6 C1 5.34 1 4.68 1 4 C0.01 3.67 -0.98 3.34 -2 3 C-1.34 2.67 -0.68 2.34 0 2 C0 1.34 0 0.68 0 0 Z " fill="#1C1C1C" transform="translate(331,216)"/>
<path d="M0 0 C0.33 1.65 0.66 3.3 1 5 C-1.72842061 6.36421031 -3.60953318 5.87807211 -6.625 5.5625 C-7.62789062 5.46066406 -8.63078125 5.35882813 -9.6640625 5.25390625 C-10.43492187 5.17011719 -11.20578125 5.08632813 -12 5 C-8.45976076 2.63984051 -4.36489861 0 0 0 Z " fill="#1E1E1E" transform="translate(192,329)"/>
<path d="M0 0 C2.97 0 5.94 0 9 0 C8.01 0.495 8.01 0.495 7 1 C7 1.66 7 2.32 7 3 C6.34 3 5.68 3 5 3 C5 3.66 5 4.32 5 5 C3.35 5.33 1.7 5.66 0 6 C-1 3 -1 3 0 0 Z " fill="#151515" transform="translate(287,314)"/>
<path d="M0 0 C7.75 -0.125 7.75 -0.125 10 1 C10 1.66 10 2.32 10 3 C7.69 3 5.38 3 3 3 C3 3.66 3 4.32 3 5 C1.68 4.67 0.36 4.34 -1 4 C-0.34 4 0.32 4 1 4 C0.67 2.68 0.34 1.36 0 0 Z " fill="#393939" transform="translate(68,323)"/>
<path d="M0 0 C2.97 0 5.94 0 9 0 C8.01 0.495 8.01 0.495 7 1 C7.33 2.32 7.66 3.64 8 5 C6.02 5 4.04 5 2 5 C2 4.34 2 3.68 2 3 C1.34 2.67 0.68 2.34 0 2 C0 1.34 0 0.68 0 0 Z " fill="#323232" transform="translate(179,203)"/>
<path d="M0 0 C3.3 0 6.6 0 10 0 C9.67 0.99 9.34 1.98 9 3 C7.15234375 3.73046875 7.15234375 3.73046875 4.9375 4.1875 C4.20402344 4.34605469 3.47054688 4.50460938 2.71484375 4.66796875 C1.86599609 4.83232422 1.86599609 4.83232422 1 5 C0.67 3.35 0.34 1.7 0 0 Z " fill="#878787" transform="translate(395,211)"/>
<path d="M0 0 C2.69082872 0.17635452 5.32851446 0.61835921 8 1 C8 1.33 8 1.66 8 2 C6.35 2.33 4.7 2.66 3 3 C3 3.66 3 4.32 3 5 C1.02 5 -0.96 5 -3 5 C-1.125 1.125 -1.125 1.125 0 0 Z " fill="#383838" transform="translate(339,188)"/>
<path d="M0 0 C2.31 0 4.62 0 7 0 C7 0.66 7 1.32 7 2 C6.29875 2.226875 5.5975 2.45375 4.875 2.6875 C1.30656387 4.31656867 -1.06514511 6.40640731 -4 9 C-3.71125 8.443125 -3.4225 7.88625 -3.125 7.3125 C-1.9586747 4.91505355 -0.9660119 2.48403061 0 0 Z " fill="#B5B5B5" transform="translate(142,275)"/>
<path d="M0 0 C2.4375 0.8125 2.4375 0.8125 5 2 C5.33 2.99 5.66 3.98 6 5 C3.36 5 0.72 5 -2 5 C-2 2 -2 2 0 0 Z " fill="#101010" transform="translate(389,184)"/>
<path d="M0 0 C1.65 0 3.3 0 5 0 C5.33 0.99 5.66 1.98 6 3 C3 5 3 5 -1 5 C-0.67 3.35 -0.34 1.7 0 0 Z " fill="#676767" transform="translate(137,322)"/>
<path d="M0 0 C1.65 0.33 3.3 0.66 5 1 C5.33 2.65 5.66 4.3 6 6 C3.03 5.01 0.06 4.02 -3 3 C-2.01 2.67 -1.02 2.34 0 2 C0 1.34 0 0.68 0 0 Z " fill="#575757" transform="translate(188,300)"/>
<path d="M0 0 C0 0.66 0 1.32 0 2 C-4.29 2 -8.58 2 -13 2 C-13 1.67 -13 1.34 -13 1 C-11.58622218 0.63447197 -10.16879424 0.28304505 -8.75 -0.0625 C-7.96109375 -0.25972656 -7.1721875 -0.45695312 -6.359375 -0.66015625 C-3.89605178 -1.01497267 -2.34395868 -0.76877544 0 0 Z " fill="#5A5A5A" transform="translate(74,333)"/>
<path d="M0 0 C1.62418745 -0.08090971 3.24951745 -0.13914995 4.875 -0.1875 C5.77992187 -0.22230469 6.68484375 -0.25710938 7.6171875 -0.29296875 C8.79667969 -0.14794922 8.79667969 -0.14794922 10 0 C10.66 0.99 11.32 1.98 12 3 C8.04 2.67 4.08 2.34 0 2 C0 1.34 0 0.68 0 0 Z " fill="#0A0A0A" transform="translate(64,274)"/>
<path d="M0 0 C0.66 0.33 1.32 0.66 2 1 C2 2.32 2 3.64 2 5 C-1.96 5 -5.92 5 -10 5 C-10 4.67 -10 4.34 -10 4 C-7.98177083 3.54427083 -5.96354167 3.08854167 -3.9453125 2.6328125 C-1.79280036 2.09525572 -1.79280036 2.09525572 0 0 Z " fill="#686868" transform="translate(135,230)"/>
<path d="M0 0 C1.65 0 3.3 0 5 0 C5 1.32 5 2.64 5 4 C5.66 4.33 6.32 4.66 7 5 C5.02 5 3.04 5 1 5 C0.67 3.35 0.34 1.7 0 0 Z " fill="#555555" transform="translate(212,225)"/>
<path d="M0 0 C0 0.66 0 1.32 0 2 C-3.63 2 -7.26 2 -11 2 C-11 1.34 -11 0.68 -11 0 C-6.94952424 -1.35015859 -4.2079832 -0.62084998 0 0 Z " fill="#7C7C7C" transform="translate(104,278)"/>
<path d="M0 0 C2.97 0 5.94 0 9 0 C9 0.66 9 1.32 9 2 C7.35 2 5.7 2 4 2 C3.67 2.99 3.34 3.98 3 5 C2.01 3.35 1.02 1.7 0 0 Z " fill="#4B4B4B" transform="translate(275,195)"/>
<path d="M0 0 C4.95 0 9.9 0 15 0 C15.33 0.99 15.66 1.98 16 3 C10.72 2.34 5.44 1.68 0 1 C0 0.67 0 0.34 0 0 Z " fill="#D2D2D2" transform="translate(414,333)"/>
<path d="M0 0 C0.99 0.33 1.98 0.66 3 1 C3 1.66 3 2.32 3 3 C2.01 3 1.02 3 0 3 C-0.33 3.99 -0.66 4.98 -1 6 C-2.32 5.67 -3.64 5.34 -5 5 C-4.01 5 -3.02 5 -2 5 C-2 3.68 -2 2.36 -2 1 C-1.34 0.67 -0.68 0.34 0 0 Z " fill="#2B2B2B" transform="translate(272,234)"/>
<path d="M0 0 C0.99 0.66 1.98 1.32 3 2 C3 2.66 3 3.32 3 4 C1.1875 4.625 1.1875 4.625 -1 5 C-1.99 4.34 -2.98 3.68 -4 3 C-3 1 -3 1 0 0 Z " fill="#6F6F6F" transform="translate(327,312)"/>
<path d="M0 0 C3.14624993 -0.26218749 4.61837017 -0.24754367 7.3125 1.5 C8.1478125 2.2425 8.1478125 2.2425 9 3 C6.03 3 3.06 3 0 3 C0 2.01 0 1.02 0 0 Z " fill="#CECECE" transform="translate(56,205)"/>
<path d="M0 0 C0.99 0.66 1.98 1.32 3 2 C3 2.66 3 3.32 3 4 C1.68 4.33 0.36 4.66 -1 5 C-1 4.34 -1 3.68 -1 3 C-1.66 3 -2.32 3 -3 3 C-3 2.34 -3 1.68 -3 1 C-2.01 0.67 -1.02 0.34 0 0 Z " fill="#ADADAD" transform="translate(356,312)"/>
</svg>
